<svg width="45" height="45" viewBox="0 0 45 45" fill="none" xmlns="http://www.w3.org/2000/svg">
<g clip-path="url(#clip0_1_99)">
<path d="M7.12125 17.8662H15.894V26.7249H7.12125V17.8662Z" fill="url(#paint0_linear_1_99)"/>
<path d="M7.12125 24.9531H15.894V26.7249H7.12125V24.9531Z" fill="url(#paint1_linear_1_99)"/>
<path d="M7.12125 23.1814H15.894V24.9532H7.12125V23.1814Z" fill="url(#paint2_linear_1_99)"/>
<path d="M7.12125 21.4097H15.894V23.1815H7.12125V21.4097Z" fill="url(#paint3_linear_1_99)"/>
<path d="M7.12125 19.638H15.894V21.4098H7.12125V19.638Z" fill="url(#paint4_linear_1_99)"/>
<path d="M7.12125 17.8662H15.894V19.638H7.12125V17.8662Z" fill="url(#paint5_linear_1_99)"/>
<path d="M6.39008 17.8587V26.7249H7.12128V17.8587C7.12128 17.758 7.03966 17.6764 6.93907 17.6764H6.57237C6.4716 17.6764 6.39008 17.758 6.39008 17.8587Z" fill="url(#paint6_linear_1_99)"/>
<path d="M15.8942 17.8587V26.7249H16.6254V17.8587C16.6254 17.758 16.5438 17.6764 16.4432 17.6764H16.0765C15.9758 17.6764 15.8942 17.758 15.8942 17.8587Z" fill="url(#paint7_linear_1_99)"/>
<path d="M17.3565 17.8662H26.1293V26.7249H17.3565V17.8662Z" fill="url(#paint8_linear_1_99)"/>
<path d="M17.3565 24.9531H26.1293V26.7249H17.3565V24.9531Z" fill="url(#paint9_linear_1_99)"/>
<path d="M17.3565 23.1814H26.1293V24.9532H17.3565V23.1814Z" fill="url(#paint10_linear_1_99)"/>
<path d="M17.3565 21.4097H26.1293V23.1815H17.3565V21.4097Z" fill="url(#paint11_linear_1_99)"/>
<path d="M17.3565 19.638H26.1293V21.4098H17.3565V19.638Z" fill="url(#paint12_linear_1_99)"/>
<path d="M17.3565 17.8662H26.1293V19.638H17.3565V17.8662Z" fill="url(#paint13_linear_1_99)"/>
<path d="M16.6252 17.8587V26.7249H17.3564V17.8587C17.3564 17.758 17.2748 17.6764 17.1742 17.6764H16.8075C16.7069 17.6764 16.6252 17.758 16.6252 17.8587Z" fill="url(#paint14_linear_1_99)"/>
<path d="M26.1293 17.8587V26.7249H26.8605V17.8587C26.8605 17.758 26.7789 17.6764 26.6783 17.6764H26.3116C26.2109 17.6764 26.1293 17.758 26.1293 17.8587Z" fill="url(#paint15_linear_1_99)"/>
<path d="M7.12125 9.01646H15.894V17.8751H7.12125V9.01646Z" fill="url(#paint16_linear_1_99)"/>
<path d="M7.12125 16.1034H15.894V17.8752H7.12125V16.1034Z" fill="url(#paint17_linear_1_99)"/>
<path d="M7.12125 14.3315H15.894V16.1033H7.12125V14.3315Z" fill="url(#paint18_linear_1_99)"/>
<path d="M7.12125 12.56H15.894V14.3318H7.12125V12.56Z" fill="url(#paint19_linear_1_99)"/>
<path d="M7.12125 10.7881H15.894V12.5599H7.12125V10.7881Z" fill="url(#paint20_linear_1_99)"/>
<path d="M7.12125 9.01646H15.894V10.7882H7.12125V9.01646Z" fill="url(#paint21_linear_1_99)"/>
<path d="M6.39008 9.00897V17.8752H7.12128V9.00897C7.12128 8.90829 7.03966 8.82668 6.93907 8.82668H6.57237C6.4716 8.82668 6.39008 8.90829 6.39008 9.00897Z" fill="url(#paint22_linear_1_99)"/>
<path d="M15.8942 9.00897V17.8752H16.6254V9.00897C16.6254 8.90829 16.5438 8.82668 16.4432 8.82668H16.0765C15.9758 8.82668 15.8942 8.90829 15.8942 9.00897Z" fill="url(#paint23_linear_1_99)"/>
<path d="M17.3565 9.01646H26.1293V17.8751H17.3565V9.01646Z" fill="url(#paint24_linear_1_99)"/>
<path d="M17.3565 16.1034H26.1293V17.8752H17.3565V16.1034Z" fill="url(#paint25_linear_1_99)"/>
<path d="M17.3565 14.3315H26.1293V16.1033H17.3565V14.3315Z" fill="url(#paint26_linear_1_99)"/>
<path d="M17.3565 12.56H26.1293V14.3318H17.3565V12.56Z" fill="url(#paint27_linear_1_99)"/>
<path d="M17.3565 10.7881H26.1293V12.5599H17.3565V10.7881Z" fill="url(#paint28_linear_1_99)"/>
<path d="M17.3565 9.01646H26.1293V10.7882H17.3565V9.01646Z" fill="url(#paint29_linear_1_99)"/>
<path d="M16.6252 9.00897V17.8752H17.3564V9.00897C17.3564 8.90829 17.2748 8.82668 17.1742 8.82668H16.8075C16.7069 8.82668 16.6252 8.90829 16.6252 9.00897Z" fill="url(#paint30_linear_1_99)"/>
<path d="M26.1293 9.00897V17.8752H26.8605V9.00897C26.8605 8.90829 26.7789 8.82668 26.6783 8.82668H26.3116C26.2109 8.82668 26.1293 8.90829 26.1293 9.00897Z" fill="url(#paint31_linear_1_99)"/>
<path d="M28.478 12.7676H43.0376V17.4475H28.478V12.7676Z" fill="url(#paint32_linear_1_99)"/>
<path d="M28.478 12.7676V13.477L32.4486 17.4476H43.0376V12.7676H28.478Z" fill="url(#paint33_linear_1_99)"/>
<path d="M43.2354 13.4769H28.2354C27.7481 13.4769 27.3531 13.0819 27.3531 12.5946C27.3531 12.1072 27.7481 11.7122 28.2354 11.7122H43.2354C43.7227 11.7122 44.1178 12.1072 44.1178 12.5946C44.1178 13.0818 43.7227 13.4769 43.2354 13.4769Z" fill="url(#paint34_linear_1_99)"/>
<path d="M31.92 15.995H30.4487C30.2022 15.995 30.0023 15.7951 30.0023 15.5486V14.6662C30.0023 14.4197 30.2022 14.2199 30.4487 14.2199H31.92C32.1665 14.2199 32.3663 14.4197 32.3663 14.6662V15.5486C32.3663 15.7951 32.1665 15.995 31.92 15.995Z" fill="url(#paint35_linear_1_99)"/>
<path d="M34.9689 15.995H33.4977C33.2512 15.995 33.0513 15.7951 33.0513 15.5486V14.6662C33.0513 14.4197 33.2512 14.2199 33.4977 14.2199H34.9689C35.2155 14.2199 35.4153 14.4197 35.4153 14.6662V15.5486C35.4154 15.7951 35.2156 15.995 34.9689 15.995Z" fill="url(#paint36_linear_1_99)"/>
<path d="M38.0178 15.995H36.5466C36.3001 15.995 36.1002 15.7951 36.1002 15.5486V14.6662C36.1002 14.4197 36.3001 14.2199 36.5466 14.2199H38.0178C38.2644 14.2199 38.4642 14.4197 38.4642 14.6662V15.5486C38.4642 15.7951 38.2644 15.995 38.0178 15.995Z" fill="url(#paint37_linear_1_99)"/>
<path d="M41.0668 15.995H39.5955C39.349 15.995 39.1491 15.7951 39.1491 15.5486V14.6662C39.1491 14.4197 39.349 14.2199 39.5955 14.2199H41.0668C41.3133 14.2199 41.5131 14.4197 41.5131 14.6662V15.5486C41.5131 15.7951 41.3133 15.995 41.0668 15.995Z" fill="url(#paint38_linear_1_99)"/>
<path d="M28.478 17.6845H43.0376V22.3644H28.478V17.6845Z" fill="url(#paint39_linear_1_99)"/>
<path d="M28.478 17.6845V18.3938L32.4486 22.3644H43.0376V17.6845H28.478Z" fill="url(#paint40_linear_1_99)"/>
<path d="M43.2354 18.3938H28.2354C27.7481 18.3938 27.3531 17.9988 27.3531 17.5115C27.3531 17.0242 27.7481 16.6291 28.2354 16.6291H43.2354C43.7227 16.6291 44.1178 17.0242 44.1178 17.5115C44.1178 17.9988 43.7227 18.3938 43.2354 18.3938Z" fill="url(#paint41_linear_1_99)"/>
<path d="M31.92 20.9121H30.4487C30.2022 20.9121 30.0023 20.7123 30.0023 20.4657V19.5834C30.0023 19.3368 30.2022 19.137 30.4487 19.137H31.92C32.1665 19.137 32.3663 19.3368 32.3663 19.5834V20.4657C32.3663 20.7123 32.1665 20.9121 31.92 20.9121Z" fill="url(#paint42_linear_1_99)"/>
<path d="M34.9689 20.9121H33.4977C33.2512 20.9121 33.0513 20.7123 33.0513 20.4657V19.5834C33.0513 19.3368 33.2512 19.137 33.4977 19.137H34.9689C35.2155 19.137 35.4153 19.3368 35.4153 19.5834V20.4657C35.4154 20.7123 35.2156 20.9121 34.9689 20.9121Z" fill="url(#paint43_linear_1_99)"/>
<path d="M38.0178 20.9121H36.5466C36.3001 20.9121 36.1002 20.7123 36.1002 20.4657V19.5834C36.1002 19.3368 36.3001 19.137 36.5466 19.137H38.0178C38.2644 19.137 38.4642 19.3368 38.4642 19.5834V20.4657C38.4642 20.7123 38.2644 20.9121 38.0178 20.9121Z" fill="url(#paint44_linear_1_99)"/>
<path d="M41.0668 20.9121H39.5955C39.349 20.9121 39.1491 20.7123 39.1491 20.4657V19.5834C39.1491 19.3368 39.349 19.137 39.5955 19.137H41.0668C41.3133 19.137 41.5131 19.3368 41.5131 19.5834V20.4657C41.5131 20.7123 41.3133 20.9121 41.0668 20.9121Z" fill="url(#paint45_linear_1_99)"/>
<path d="M28.478 22.6014H43.0376V27.2813H28.478V22.6014Z" fill="url(#paint46_linear_1_99)"/>
<path d="M28.478 22.6014V23.3107L32.4486 27.2813H43.0376V22.6014H28.478Z" fill="url(#paint47_linear_1_99)"/>
<path d="M43.2354 23.3108H28.2354C27.7481 23.3108 27.3531 22.9157 27.3531 22.4284C27.3531 21.9411 27.7481 21.5461 28.2354 21.5461H43.2354C43.7227 21.5461 44.1178 21.9411 44.1178 22.4284C44.1178 22.9157 43.7227 23.3108 43.2354 23.3108Z" fill="url(#paint48_linear_1_99)"/>
<path d="M31.92 25.829H30.4487C30.2022 25.829 30.0023 25.6292 30.0023 25.3827V24.5003C30.0023 24.2538 30.2022 24.0539 30.4487 24.0539H31.92C32.1665 24.0539 32.3663 24.2538 32.3663 24.5003V25.3827C32.3663 25.6292 32.1665 25.829 31.92 25.829Z" fill="url(#paint49_linear_1_99)"/>
<path d="M34.9689 25.829H33.4977C33.2512 25.829 33.0513 25.6292 33.0513 25.3827V24.5003C33.0513 24.2538 33.2512 24.0539 33.4977 24.0539H34.9689C35.2155 24.0539 35.4153 24.2538 35.4153 24.5003V25.3827C35.4154 25.6292 35.2156 25.829 34.9689 25.829Z" fill="url(#paint50_linear_1_99)"/>
<path d="M38.0178 25.829H36.5466C36.3001 25.829 36.1002 25.6292 36.1002 25.3827V24.5003C36.1002 24.2538 36.3001 24.0539 36.5466 24.0539H38.0178C38.2644 24.0539 38.4642 24.2538 38.4642 24.5003V25.3827C38.4642 25.6292 38.2644 25.829 38.0178 25.829Z" fill="url(#paint51_linear_1_99)"/>
<path d="M41.0668 25.829H39.5955C39.349 25.829 39.1491 25.6292 39.1491 25.3827V24.5003C39.1491 24.2538 39.349 24.0539 39.5955 24.0539H41.0668C41.3133 24.0539 41.5131 24.2538 41.5131 24.5003V25.3827C41.5131 25.6292 41.3133 25.829 41.0668 25.829Z" fill="url(#paint52_linear_1_99)"/>
<path d="M0.0863624 22.6225L3.95989 27.7099C5.61633 29.8853 5.93962 32.7964 4.80095 35.2823C4.61009 35.699 4.91459 36.1734 5.37289 36.1734H41.4469C42.094 36.1734 42.6899 35.821 43.0016 35.2539L44.7806 32.0174C45.0483 31.5303 45.0723 30.9458 44.8454 30.4385L43.5678 27.5823C43.2822 26.9437 42.6479 26.5327 41.9484 26.5327H20.3689C19.2218 26.5327 18.1442 25.982 17.4723 25.0521L16.3006 23.4307C15.6287 22.5009 14.5512 21.9502 13.4041 21.9502H0.419539C0.0730389 21.9501 -0.123549 22.3468 0.0863624 22.6225Z" fill="url(#paint53_linear_1_99)"/>
<path d="M5.46771 31.9095C5.51218 33.0506 5.2938 34.2063 4.80092 35.2823C4.61006 35.6989 4.91456 36.1734 5.37286 36.1734H41.4469C42.094 36.1734 42.6899 35.821 43.0015 35.2539L44.7805 32.0173C44.7999 31.9819 44.8177 31.9459 44.8346 31.9096H5.46771V31.9095Z" fill="url(#paint54_linear_1_99)"/>
<path d="M28.9464 30.2726C29.4852 30.2726 29.9221 29.8358 29.9221 29.2969C29.9221 28.758 29.4852 28.3212 28.9464 28.3212C28.4075 28.3212 27.9707 28.758 27.9707 29.2969C27.9707 29.8358 28.4075 30.2726 28.9464 30.2726Z" fill="url(#paint55_linear_1_99)"/>
<path d="M32.8287 30.2726C33.3676 30.2726 33.8044 29.8358 33.8044 29.2969C33.8044 28.758 33.3676 28.3212 32.8287 28.3212C32.2898 28.3212 31.853 28.758 31.853 29.2969C31.853 29.8358 32.2898 30.2726 32.8287 30.2726Z" fill="url(#paint56_linear_1_99)"/>
<path d="M36.7111 30.2726C37.25 30.2726 37.6868 29.8358 37.6868 29.2969C37.6868 28.758 37.25 28.3212 36.7111 28.3212C36.1723 28.3212 35.7354 28.758 35.7354 29.2969C35.7354 29.8358 36.1723 30.2726 36.7111 30.2726Z" fill="url(#paint57_linear_1_99)"/>
<path d="M9.42025 28.4331C5.91493 24.6126 1.7136 22.8069 0.0378377 22.1982C-0.020927 22.3292 -0.0147505 22.4897 0.0862789 22.6224L3.95981 27.7098C5.61625 29.8852 5.93954 32.7963 4.80087 35.2822C4.47201 35.6111 4.70496 36.1733 5.16996 36.1733H10.2514L10.6379 35.2309C11.5852 32.9208 11.1082 30.2729 9.42025 28.4331Z" fill="url(#paint58_linear_1_99)"/>
</g>
<defs>
<linearGradient id="paint0_linear_1_99" x1="10.3604" y1="19.58" x2="12.861" y2="25.4989" gradientUnits="userSpaceOnUse">
<stop stop-color="#D4F7FF"/>
<stop offset="1" stop-color="#A2E3E9"/>
</linearGradient>
<linearGradient id="paint1_linear_1_99" x1="11.0075" y1="24.6551" x2="12.0977" y2="27.2356" gradientUnits="userSpaceOnUse">
<stop stop-color="#D4F7FF"/>
<stop offset="1" stop-color="#A2E3E9"/>
</linearGradient>
<linearGradient id="paint2_linear_1_99" x1="11.0075" y1="22.8833" x2="12.0977" y2="25.4639" gradientUnits="userSpaceOnUse">
<stop stop-color="#D4F7FF"/>
<stop offset="1" stop-color="#A2E3E9"/>
</linearGradient>
<linearGradient id="paint3_linear_1_99" x1="11.0075" y1="21.1116" x2="12.0977" y2="23.6921" gradientUnits="userSpaceOnUse">
<stop stop-color="#D4F7FF"/>
<stop offset="1" stop-color="#A2E3E9"/>
</linearGradient>
<linearGradient id="paint4_linear_1_99" x1="11.0075" y1="19.34" x2="12.0977" y2="21.9205" gradientUnits="userSpaceOnUse">
<stop stop-color="#D4F7FF"/>
<stop offset="1" stop-color="#A2E3E9"/>
</linearGradient>
<linearGradient id="paint5_linear_1_99" x1="11.0075" y1="17.5682" x2="12.0977" y2="20.1487" gradientUnits="userSpaceOnUse">
<stop stop-color="#D4F7FF"/>
<stop offset="1" stop-color="#A2E3E9"/>
</linearGradient>
<linearGradient id="paint6_linear_1_99" x1="5.89181" y1="20.2286" x2="7.74186" y2="24.6076" gradientUnits="userSpaceOnUse">
<stop stop-color="#D4F7FF"/>
<stop offset="1" stop-color="#A2E3E9"/>
</linearGradient>
<linearGradient id="paint7_linear_1_99" x1="15.396" y1="20.2286" x2="17.246" y2="24.6076" gradientUnits="userSpaceOnUse">
<stop stop-color="#D4F7FF"/>
<stop offset="1" stop-color="#A2E3E9"/>
</linearGradient>
<linearGradient id="paint8_linear_1_99" x1="20.5956" y1="19.58" x2="23.0963" y2="25.4989" gradientUnits="userSpaceOnUse">
<stop stop-color="#D4F7FF"/>
<stop offset="1" stop-color="#A2E3E9"/>
</linearGradient>
<linearGradient id="paint9_linear_1_99" x1="21.2427" y1="24.6551" x2="22.333" y2="27.2356" gradientUnits="userSpaceOnUse">
<stop stop-color="#C4F8B6"/>
<stop offset="1" stop-color="#3B8EAC"/>
</linearGradient>
<linearGradient id="paint10_linear_1_99" x1="21.648" y1="23.1184" x2="22.001" y2="26.6478" gradientUnits="userSpaceOnUse">
<stop stop-color="#C4F8B6"/>
<stop offset="1" stop-color="#3B8EAC"/>
</linearGradient>
<linearGradient id="paint11_linear_1_99" x1="21.6298" y1="21.0344" x2="21.9386" y2="24.4756" gradientUnits="userSpaceOnUse">
<stop stop-color="#C4F8B6"/>
<stop offset="1" stop-color="#3B8EAC"/>
</linearGradient>
<linearGradient id="paint12_linear_1_99" x1="21.6707" y1="19.8495" x2="22.0677" y2="23.5554" gradientUnits="userSpaceOnUse">
<stop stop-color="#C4F8B6"/>
<stop offset="1" stop-color="#3B8EAC"/>
</linearGradient>
<linearGradient id="paint13_linear_1_99" x1="21.6743" y1="18.1448" x2="22.2478" y2="23.2184" gradientUnits="userSpaceOnUse">
<stop stop-color="#C4F8B6"/>
<stop offset="1" stop-color="#3B8EAC"/>
</linearGradient>
<linearGradient id="paint14_linear_1_99" x1="16.172" y1="22.1013" x2="18.2896" y2="22.3881" gradientUnits="userSpaceOnUse">
<stop stop-color="#C4F8B6"/>
<stop offset="1" stop-color="#3B8EAC"/>
</linearGradient>
<linearGradient id="paint15_linear_1_99" x1="25.6094" y1="22.0823" x2="27.5506" y2="22.3691" gradientUnits="userSpaceOnUse">
<stop stop-color="#C4F8B6"/>
<stop offset="1" stop-color="#3B8EAC"/>
</linearGradient>
<linearGradient id="paint16_linear_1_99" x1="10.3604" y1="10.7303" x2="12.861" y2="16.6492" gradientUnits="userSpaceOnUse">
<stop stop-color="#D4F7FF"/>
<stop offset="1" stop-color="#A2E3E9"/>
</linearGradient>
<linearGradient id="paint17_linear_1_99" x1="11.2241" y1="15.1131" x2="11.7976" y2="18.9072" gradientUnits="userSpaceOnUse">
<stop stop-color="#3FA9F5"/>
<stop offset="1" stop-color="#666AD6"/>
</linearGradient>
<linearGradient id="paint18_linear_1_99" x1="11.3018" y1="14.0853" x2="11.8312" y2="16.997" gradientUnits="userSpaceOnUse">
<stop stop-color="#3FA9F5"/>
<stop offset="1" stop-color="#666AD6"/>
</linearGradient>
<linearGradient id="paint19_linear_1_99" x1="11.1751" y1="12.0049" x2="11.9692" y2="15.4461" gradientUnits="userSpaceOnUse">
<stop stop-color="#3FA9F5"/>
<stop offset="1" stop-color="#666AD6"/>
</linearGradient>
<linearGradient id="paint20_linear_1_99" x1="11.2472" y1="10.3545" x2="11.909" y2="13.7074" gradientUnits="userSpaceOnUse">
<stop stop-color="#3FA9F5"/>
<stop offset="1" stop-color="#666AD6"/>
</linearGradient>
<linearGradient id="paint21_linear_1_99" x1="11.4057" y1="9.25311" x2="11.891" y2="12.3414" gradientUnits="userSpaceOnUse">
<stop stop-color="#3FA9F5"/>
<stop offset="1" stop-color="#666AD6"/>
</linearGradient>
<linearGradient id="paint22_linear_1_99" x1="5.89181" y1="11.3789" x2="7.74185" y2="15.7579" gradientUnits="userSpaceOnUse">
<stop stop-color="#3FA9F5"/>
<stop offset="1" stop-color="#666AD6"/>
</linearGradient>
<linearGradient id="paint23_linear_1_99" x1="15.396" y1="11.3789" x2="17.246" y2="15.7579" gradientUnits="userSpaceOnUse">
<stop stop-color="#3FA9F5"/>
<stop offset="1" stop-color="#666AD6"/>
</linearGradient>
<linearGradient id="paint24_linear_1_99" x1="20.5956" y1="10.7303" x2="23.0963" y2="16.6492" gradientUnits="userSpaceOnUse">
<stop stop-color="#D4F7FF"/>
<stop offset="1" stop-color="#A2E3E9"/>
</linearGradient>
<linearGradient id="paint25_linear_1_99" x1="21.5654" y1="15.4809" x2="22.0066" y2="19.2309" gradientUnits="userSpaceOnUse">
<stop stop-color="#FFE548"/>
<stop offset="0.1758" stop-color="#FFDE50"/>
<stop offset="0.4446" stop-color="#FFCA65"/>
<stop offset="0.7709" stop-color="#FFAA87"/>
<stop offset="1" stop-color="#FF90A4"/>
</linearGradient>
<linearGradient id="paint26_linear_1_99" x1="21.5421" y1="13.8618" x2="22.0715" y2="17.4354" gradientUnits="userSpaceOnUse">
<stop stop-color="#FFE548"/>
<stop offset="0.1758" stop-color="#FFDE50"/>
<stop offset="0.4446" stop-color="#FFCA65"/>
<stop offset="0.7709" stop-color="#FFAA87"/>
<stop offset="1" stop-color="#FF90A4"/>
</linearGradient>
<linearGradient id="paint27_linear_1_99" x1="21.5598" y1="11.9971" x2="22.0451" y2="15.8353" gradientUnits="userSpaceOnUse">
<stop stop-color="#FFE548"/>
<stop offset="0.1758" stop-color="#FFDE50"/>
<stop offset="0.4446" stop-color="#FFCA65"/>
<stop offset="0.7709" stop-color="#FFAA87"/>
<stop offset="1" stop-color="#FF90A4"/>
</linearGradient>
<linearGradient id="paint28_linear_1_99" x1="21.5805" y1="9.90534" x2="21.9776" y2="14.2289" gradientUnits="userSpaceOnUse">
<stop stop-color="#FFE548"/>
<stop offset="0.1758" stop-color="#FFDE50"/>
<stop offset="0.4446" stop-color="#FFCA65"/>
<stop offset="0.7709" stop-color="#FFAA87"/>
<stop offset="1" stop-color="#FF90A4"/>
</linearGradient>
<linearGradient id="paint29_linear_1_99" x1="21.6457" y1="8.46067" x2="21.9104" y2="12.3871" gradientUnits="userSpaceOnUse">
<stop stop-color="#FFE548"/>
<stop offset="0.1758" stop-color="#FFDE50"/>
<stop offset="0.4446" stop-color="#FFCA65"/>
<stop offset="0.7709" stop-color="#FFAA87"/>
<stop offset="1" stop-color="#FF90A4"/>
</linearGradient>
<linearGradient id="paint30_linear_1_99" x1="16.1271" y1="11.3789" x2="17.9771" y2="15.7579" gradientUnits="userSpaceOnUse">
<stop stop-color="#FFE548"/>
<stop offset="0.1758" stop-color="#FFDE50"/>
<stop offset="0.4446" stop-color="#FFCA65"/>
<stop offset="0.7709" stop-color="#FFAA87"/>
<stop offset="1" stop-color="#FF90A4"/>
</linearGradient>
<linearGradient id="paint31_linear_1_99" x1="25.9095" y1="13.133" x2="27.6742" y2="13.883" gradientUnits="userSpaceOnUse">
<stop stop-color="#FFE548"/>
<stop offset="0.1758" stop-color="#FFDE50"/>
<stop offset="0.4446" stop-color="#FFCA65"/>
<stop offset="0.7709" stop-color="#FFAA87"/>
<stop offset="1" stop-color="#FF90A4"/>
</linearGradient>
<linearGradient id="paint32_linear_1_99" x1="35.602" y1="13.1128" x2="36.0348" y2="18.6513" gradientUnits="userSpaceOnUse">
<stop stop-color="#D4F7FF"/>
<stop offset="1" stop-color="#A2E3E9"/>
</linearGradient>
<linearGradient id="paint33_linear_1_99" x1="36.1438" y1="16.1085" x2="35.3056" y2="9.62322" gradientUnits="userSpaceOnUse">
<stop stop-color="#A2E3E9" stop-opacity="0"/>
<stop offset="1" stop-color="#518CD2"/>
</linearGradient>
<linearGradient id="paint34_linear_1_99" x1="35.7354" y1="11.8844" x2="35.7354" y2="13.2957" gradientUnits="userSpaceOnUse">
<stop stop-color="#FF4974"/>
<stop offset="0.2231" stop-color="#FB3F6C"/>
<stop offset="0.6075" stop-color="#F12357"/>
<stop offset="1" stop-color="#E4003D"/>
</linearGradient>
<linearGradient id="paint35_linear_1_99" x1="31.0074" y1="14.5235" x2="31.5957" y2="16.4646" gradientUnits="userSpaceOnUse">
<stop stop-color="#4F4A72"/>
<stop offset="1" stop-color="#3B395F"/>
</linearGradient>
<linearGradient id="paint36_linear_1_99" x1="34.0564" y1="14.5235" x2="34.6447" y2="16.4646" gradientUnits="userSpaceOnUse">
<stop stop-color="#4F4A72"/>
<stop offset="1" stop-color="#3B395F"/>
</linearGradient>
<linearGradient id="paint37_linear_1_99" x1="37.1053" y1="14.5235" x2="37.6935" y2="16.4646" gradientUnits="userSpaceOnUse">
<stop stop-color="#4F4A72"/>
<stop offset="1" stop-color="#3B395F"/>
</linearGradient>
<linearGradient id="paint38_linear_1_99" x1="40.1542" y1="14.5235" x2="40.7425" y2="16.4646" gradientUnits="userSpaceOnUse">
<stop stop-color="#4F4A72"/>
<stop offset="1" stop-color="#3B395F"/>
</linearGradient>
<linearGradient id="paint39_linear_1_99" x1="35.602" y1="18.0298" x2="36.0348" y2="23.5682" gradientUnits="userSpaceOnUse">
<stop stop-color="#D4F7FF"/>
<stop offset="1" stop-color="#A2E3E9"/>
</linearGradient>
<linearGradient id="paint40_linear_1_99" x1="36.1438" y1="21.0254" x2="35.3056" y2="14.5401" gradientUnits="userSpaceOnUse">
<stop stop-color="#A2E3E9" stop-opacity="0"/>
<stop offset="1" stop-color="#518CD2"/>
</linearGradient>
<linearGradient id="paint41_linear_1_99" x1="35.7354" y1="16.8015" x2="35.7354" y2="18.2127" gradientUnits="userSpaceOnUse">
<stop stop-color="#3FA9F5"/>
<stop offset="1" stop-color="#666AD6"/>
</linearGradient>
<linearGradient id="paint42_linear_1_99" x1="31.0074" y1="19.4406" x2="31.5957" y2="21.3818" gradientUnits="userSpaceOnUse">
<stop stop-color="#4F4A72"/>
<stop offset="1" stop-color="#3B395F"/>
</linearGradient>
<linearGradient id="paint43_linear_1_99" x1="34.0564" y1="19.4406" x2="34.6447" y2="21.3818" gradientUnits="userSpaceOnUse">
<stop stop-color="#4F4A72"/>
<stop offset="1" stop-color="#3B395F"/>
</linearGradient>
<linearGradient id="paint44_linear_1_99" x1="37.1053" y1="19.4406" x2="37.6935" y2="21.3818" gradientUnits="userSpaceOnUse">
<stop stop-color="#4F4A72"/>
<stop offset="1" stop-color="#3B395F"/>
</linearGradient>
<linearGradient id="paint45_linear_1_99" x1="40.1542" y1="19.4406" x2="40.7425" y2="21.3818" gradientUnits="userSpaceOnUse">
<stop stop-color="#4F4A72"/>
<stop offset="1" stop-color="#3B395F"/>
</linearGradient>
<linearGradient id="paint46_linear_1_99" x1="35.602" y1="22.9467" x2="36.0348" y2="28.4851" gradientUnits="userSpaceOnUse">
<stop stop-color="#D4F7FF"/>
<stop offset="1" stop-color="#A2E3E9"/>
</linearGradient>
<linearGradient id="paint47_linear_1_99" x1="36.1438" y1="25.9424" x2="35.3056" y2="19.4571" gradientUnits="userSpaceOnUse">
<stop stop-color="#A2E3E9" stop-opacity="0"/>
<stop offset="1" stop-color="#518CD2"/>
</linearGradient>
<linearGradient id="paint48_linear_1_99" x1="35.7354" y1="21.7183" x2="35.7354" y2="23.1296" gradientUnits="userSpaceOnUse">
<stop stop-color="#FF4974"/>
<stop offset="0.2231" stop-color="#FB3F6C"/>
<stop offset="0.6075" stop-color="#F12357"/>
<stop offset="1" stop-color="#E4003D"/>
</linearGradient>
<linearGradient id="paint49_linear_1_99" x1="31.0074" y1="24.3575" x2="31.5957" y2="26.2987" gradientUnits="userSpaceOnUse">
<stop stop-color="#4F4A72"/>
<stop offset="1" stop-color="#3B395F"/>
</linearGradient>
<linearGradient id="paint50_linear_1_99" x1="34.0564" y1="24.3575" x2="34.6447" y2="26.2987" gradientUnits="userSpaceOnUse">
<stop stop-color="#4F4A72"/>
<stop offset="1" stop-color="#3B395F"/>
</linearGradient>
<linearGradient id="paint51_linear_1_99" x1="37.1053" y1="24.3575" x2="37.6935" y2="26.2987" gradientUnits="userSpaceOnUse">
<stop stop-color="#4F4A72"/>
<stop offset="1" stop-color="#3B395F"/>
</linearGradient>
<linearGradient id="paint52_linear_1_99" x1="40.1542" y1="24.3575" x2="40.7425" y2="26.2987" gradientUnits="userSpaceOnUse">
<stop stop-color="#4F4A72"/>
<stop offset="1" stop-color="#3B395F"/>
</linearGradient>
<linearGradient id="paint53_linear_1_99" x1="21.4449" y1="24.4978" x2="27.3871" y2="39.666" gradientUnits="userSpaceOnUse">
<stop stop-color="#4F4A72"/>
<stop offset="1" stop-color="#3B395F"/>
</linearGradient>
<linearGradient id="paint54_linear_1_99" x1="23.811" y1="31.2896" x2="27.4182" y2="40.4973" gradientUnits="userSpaceOnUse">
<stop stop-color="#FF4974"/>
<stop offset="0.2231" stop-color="#FB3F6C"/>
<stop offset="0.6075" stop-color="#F12357"/>
<stop offset="1" stop-color="#E4003D"/>
</linearGradient>
<linearGradient id="paint55_linear_1_99" x1="28.8432" y1="29.0336" x2="29.2522" y2="30.0776" gradientUnits="userSpaceOnUse">
<stop stop-color="#D4F7FF"/>
<stop offset="1" stop-color="#A2E3E9"/>
</linearGradient>
<linearGradient id="paint56_linear_1_99" x1="32.7256" y1="29.0336" x2="33.1345" y2="30.0776" gradientUnits="userSpaceOnUse">
<stop stop-color="#D4F7FF"/>
<stop offset="1" stop-color="#A2E3E9"/>
</linearGradient>
<linearGradient id="paint57_linear_1_99" x1="36.608" y1="29.0336" x2="37.0169" y2="30.0776" gradientUnits="userSpaceOnUse">
<stop stop-color="#D4F7FF"/>
<stop offset="1" stop-color="#A2E3E9"/>
</linearGradient>
<linearGradient id="paint58_linear_1_99" x1="4.67813" y1="29.4262" x2="10.3252" y2="26.5145" gradientUnits="userSpaceOnUse">
<stop stop-color="#3B395F" stop-opacity="0"/>
<stop offset="1" stop-color="#3B395F"/>
</linearGradient>
<clipPath id="clip0_1_99">
<rect width="45" height="45" fill="white"/>
</clipPath>
</defs>
</svg>
