<svg width="33" height="33" viewBox="0 0 33 33" fill="none" xmlns="http://www.w3.org/2000/svg">
<g clip-path="url(#clip0_1_311)">
<path d="M24.6231 2.23393C24.5645 4.48854 27.0064 5.92916 28.9515 4.78764C29.412 4.51724 29.9279 5.04293 29.6489 5.49838C28.4709 7.42166 29.8652 9.89026 32.1206 9.8744C32.6548 9.87037 32.8386 10.5836 32.3693 10.8384C30.3874 11.915 30.3607 14.7502 32.3217 15.864C32.7863 16.1276 32.5891 16.8371 32.0551 16.8233C29.8005 16.7648 28.3599 19.2068 29.5012 21.1519C29.7716 21.6124 29.2461 22.1283 28.7907 21.8493C26.8674 20.6713 24.3985 22.0656 24.4146 24.321C24.4184 24.855 23.7054 25.039 23.4504 24.5695C22.3741 22.5878 19.5386 22.5611 18.425 24.5221C18.1612 24.9866 17.4517 24.7893 17.4655 24.2553C17.5242 22.0009 15.0823 20.56 13.1371 21.7015C12.6764 21.972 12.1607 21.4463 12.4397 20.9908C13.6177 19.0678 12.2232 16.5989 9.96808 16.615C9.43382 16.6188 9.25003 15.9058 9.71933 15.6508C11.7013 14.5742 11.728 11.739 9.76666 10.6252C9.3024 10.3616 9.49954 9.65209 10.0335 9.66593C12.2881 9.7246 13.7288 7.28243 12.5875 5.3375C12.3171 4.87676 12.8425 4.36114 13.298 4.6401C15.2213 5.81813 17.6901 4.42358 17.674 2.16822C17.6702 1.63422 18.3832 1.45043 18.638 1.91973C19.7146 3.90166 22.55 3.92835 23.6636 1.96706C23.9275 1.50254 24.637 1.69993 24.6231 2.23393Z" fill="url(#paint0_radial_1_311)"/>
<path d="M21.5422 1.67785C22.0898 3.86548 24.8285 4.59939 26.3968 2.9785C26.7682 2.59455 27.4059 2.96289 27.2591 3.4765C26.6393 5.64499 28.6443 7.64984 30.8128 7.02998C31.3262 6.88345 31.6945 7.52093 31.3106 7.89254C29.6897 9.46057 30.4236 12.1993 32.6112 12.7469C33.1296 12.8766 33.1296 13.613 32.6112 13.7427C30.4236 14.2903 29.6897 17.029 31.3106 18.597C31.6945 18.9684 31.3262 19.6061 30.8128 19.4594C28.6443 18.8398 26.6393 20.8446 27.2591 23.0131C27.4059 23.5267 26.7682 23.8948 26.3968 23.5111C24.8285 21.8902 22.0898 22.6239 21.5422 24.8117C21.4125 25.3299 20.6761 25.3299 20.5464 24.8117C19.9988 22.6239 17.2601 21.8902 15.692 23.5111C15.3207 23.8948 14.6829 23.5267 14.8297 23.0131C15.4493 20.8446 13.4445 18.8398 11.276 19.4594C10.7624 19.6061 10.3943 18.9684 10.778 18.597C12.3989 17.029 11.6652 14.2903 9.47735 13.7427C8.95921 13.613 8.95921 12.8766 9.47735 12.7469C11.6652 12.1993 12.3989 9.46057 10.778 7.89254C10.3943 7.52093 10.7624 6.88345 11.276 7.02998C13.4445 7.64984 15.4493 5.64499 14.8297 3.4765C14.6829 2.96289 15.3207 2.59455 15.692 2.9785C17.2601 4.59939 19.9988 3.86548 20.5464 1.67785C20.6761 1.15971 21.4125 1.15971 21.5422 1.67785Z" fill="white"/>
<path d="M21.5422 1.67785C22.0898 3.86548 24.8285 4.59939 26.3968 2.9785C26.7682 2.59455 27.4059 2.96289 27.2591 3.4765C26.6393 5.64499 28.6443 7.64984 30.8128 7.02998C31.3262 6.88345 31.6945 7.52093 31.3106 7.89254C29.6897 9.46057 30.4236 12.1993 32.6112 12.7469C33.1296 12.8766 33.1296 13.613 32.6112 13.7427C30.4236 14.2903 29.6897 17.029 31.3106 18.597C31.6945 18.9684 31.3262 19.6061 30.8128 19.4594C28.6443 18.8398 26.6393 20.8446 27.2591 23.0131C27.4059 23.5267 26.7682 23.8948 26.3968 23.5111C24.8285 21.8902 22.0898 22.6239 21.5422 24.8117C21.4125 25.3299 20.6761 25.3299 20.5464 24.8117C19.9988 22.6239 17.2601 21.8902 15.692 23.5111C15.3207 23.8948 14.6829 23.5267 14.8297 23.0131C15.4493 20.8446 13.4445 18.8398 11.276 19.4594C10.7624 19.6061 10.3943 18.9684 10.778 18.597C12.3989 17.029 11.6652 14.2903 9.47735 13.7427C8.95921 13.613 8.95921 12.8766 9.47735 12.7469C11.6652 12.1993 12.3989 9.46057 10.778 7.89254C10.3943 7.52093 10.7624 6.88345 11.276 7.02998C13.4445 7.64984 15.4493 5.64499 14.8297 3.4765C14.6829 2.96289 15.3207 2.59455 15.692 2.9785C17.2601 4.59939 19.9988 3.86548 20.5464 1.67785C20.6761 1.15971 21.4125 1.15971 21.5422 1.67785Z" fill="url(#paint1_radial_1_311)"/>
<path d="M29.1104 13.2446C29.1104 17.6994 25.499 21.3106 21.0445 21.3106C16.5897 21.3106 12.9785 17.6994 12.9785 13.2446C12.9785 8.79004 16.5897 5.17865 21.0445 5.17865C25.499 5.17865 29.1104 8.79004 29.1104 13.2446Z" fill="url(#paint2_radial_1_311)"/>
<path d="M21.3219 19.0454C21.0148 19.0414 20.7126 19.0595 20.4168 19.0977C20.1494 19.1327 19.9168 18.9218 19.9173 18.6521C19.9173 18.6501 19.9173 18.6483 19.9173 18.6466C19.9173 15.8056 17.6141 13.5024 14.7731 13.5024C12.5374 13.5024 10.6358 14.9289 9.92655 16.9214C9.85328 17.1269 9.64457 17.253 9.42981 17.2132C9.20271 17.171 8.96856 17.1488 8.72888 17.1488C6.60344 17.1488 4.88032 18.8717 4.88032 20.9974V21.0112C4.88133 21.2353 4.71994 21.4294 4.49763 21.4573C1.96558 21.7748 0.00580317 23.9322 1.24587e-05 26.5489C-0.00628179 29.3848 2.3732 31.7049 5.20913 31.7049H21.2376C24.746 31.7049 27.5877 28.8506 27.5676 25.3376C27.5477 21.9057 24.7538 19.0907 21.3219 19.0454Z" fill="url(#paint3_linear_1_311)"/>
<path d="M19.8805 18.0396C19.9112 18.2918 19.9218 18.5381 19.9155 18.78C19.9094 19.0139 19.7538 19.2156 19.5283 19.2788C17.3686 19.8825 15.6752 21.6034 15.1099 23.7794C14.9987 23.7867 14.8864 23.7908 14.7731 23.7908C11.9318 23.7908 9.62891 21.4876 9.62891 18.6466C9.62891 15.7429 12.0341 13.4015 14.9606 13.5057C17.4781 13.5953 19.5771 15.539 19.8805 18.0396Z" fill="url(#paint4_linear_1_311)"/>
<path d="M12.5689 20.737C12.6887 22.5568 11.5419 24.1281 9.92426 24.6566C9.1677 22.758 7.31265 21.4165 5.14416 21.4165C5.1434 21.4165 5.14265 21.4165 5.14189 21.4165C5.00568 21.4165 4.89088 21.3126 4.88458 21.1769C4.88181 21.1172 4.88055 21.0573 4.88055 20.9971C4.88055 18.782 6.75272 17.0035 9.00153 17.1581C10.9042 17.289 12.4437 18.8339 12.5689 20.737Z" fill="url(#paint5_linear_1_311)"/>
</g>
<defs>
<radialGradient id="paint0_radial_1_311" cx="0" cy="0" r="1" gradientUnits="userSpaceOnUse" gradientTransform="translate(21.1302 13.267) rotate(15.5401) scale(11.5891 11.5891)">
<stop stop-color="#FFA700"/>
<stop offset="0.3726" stop-color="#FFA802" stop-opacity="0.627451"/>
<stop offset="0.5069" stop-color="#FFAA09" stop-opacity="0.494118"/>
<stop offset="0.6026" stop-color="#FFAE14" stop-opacity="0.396078"/>
<stop offset="0.68" stop-color="#FFB425" stop-opacity="0.321569"/>
<stop offset="0.7463" stop-color="#FFBC3B" stop-opacity="0.254902"/>
<stop offset="0.805" stop-color="#FFC557" stop-opacity="0.196078"/>
<stop offset="0.8581" stop-color="#FFD077" stop-opacity="0.141176"/>
<stop offset="0.9069" stop-color="#FFDD9D" stop-opacity="0.094118"/>
<stop offset="0.9523" stop-color="#FFECC8" stop-opacity="0.047059"/>
<stop offset="0.9926" stop-color="#FFFCF6" stop-opacity="0.01"/>
<stop offset="1" stop-color="white" stop-opacity="0"/>
</radialGradient>
<radialGradient id="paint1_radial_1_311" cx="0" cy="0" r="1" gradientUnits="userSpaceOnUse" gradientTransform="translate(21.134 13.2447) scale(12.8121 12.8121)">
<stop stop-color="#FFD459"/>
<stop offset="0.2794" stop-color="#FFD55B" stop-opacity="0.721569"/>
<stop offset="0.4354" stop-color="#FFD763" stop-opacity="0.564706"/>
<stop offset="0.5609" stop-color="#FFDA71" stop-opacity="0.439216"/>
<stop offset="0.6702" stop-color="#FFDF85" stop-opacity="0.329412"/>
<stop offset="0.7691" stop-color="#FFE69E" stop-opacity="0.231373"/>
<stop offset="0.8603" stop-color="#FFEEBE" stop-opacity="0.141176"/>
<stop offset="0.944" stop-color="#FFF8E2" stop-opacity="0.054902"/>
<stop offset="1" stop-color="white" stop-opacity="0"/>
</radialGradient>
<radialGradient id="paint2_radial_1_311" cx="0" cy="0" r="1" gradientUnits="userSpaceOnUse" gradientTransform="translate(18.8979 10.0432) scale(10.8797 10.8797)">
<stop stop-color="#FFD459"/>
<stop offset="0.2296" stop-color="#FFD355"/>
<stop offset="0.4362" stop-color="#FFCF4A"/>
<stop offset="0.634" stop-color="#FFC838"/>
<stop offset="0.825" stop-color="#FFBF1F"/>
<stop offset="1" stop-color="#FFB400"/>
</radialGradient>
<linearGradient id="paint3_linear_1_311" x1="10.9358" y1="16.959" x2="16.6076" y2="34.6998" gradientUnits="userSpaceOnUse">
<stop stop-color="#F2E9DC"/>
<stop offset="0.2282" stop-color="#F0E4D7"/>
<stop offset="0.5158" stop-color="#EAD7C7"/>
<stop offset="0.8338" stop-color="#E0C2AD"/>
<stop offset="1" stop-color="#DAB49D"/>
</linearGradient>
<linearGradient id="paint4_linear_1_311" x1="14.4039" y1="18.5967" x2="23.7993" y2="19.8707" gradientUnits="userSpaceOnUse">
<stop stop-color="#F2E9DC" stop-opacity="0"/>
<stop offset="0.6804" stop-color="#CFA37B" stop-opacity="0.682353"/>
<stop offset="1" stop-color="#C08552"/>
</linearGradient>
<linearGradient id="paint5_linear_1_311" x1="9.54023" y1="20.5417" x2="3.77606" y2="23.7791" gradientUnits="userSpaceOnUse">
<stop stop-color="#F2E9DC" stop-opacity="0"/>
<stop offset="0.6804" stop-color="#CFA37B" stop-opacity="0.682353"/>
<stop offset="1" stop-color="#C08552"/>
</linearGradient>
<clipPath id="clip0_1_311">
<rect width="33" height="33" fill="white"/>
</clipPath>
</defs>
</svg>
