<svg width="26" height="26" viewBox="0 0 26 26" fill="none" xmlns="http://www.w3.org/2000/svg">
<g clip-path="url(#clip0_1_47)">
<path d="M24.2924 13C24.2924 10.8149 23.6671 8.69454 22.4841 6.86828C21.3324 5.09017 19.7124 3.67489 17.7993 2.7755C17.4157 2.59518 16.9586 2.75991 16.7783 3.14347C16.5979 3.52707 16.7627 3.9842 17.1462 4.16458C20.5548 5.76719 22.7574 9.23531 22.7574 13C22.7574 18.1951 18.6762 22.4545 13.5517 22.7416L13.9331 22.3602C14.2329 22.0605 14.2329 21.5746 13.9331 21.2748C13.6335 20.9751 13.1475 20.9751 12.8477 21.2748L11.1402 22.9824C10.9963 23.1263 10.9154 23.3215 10.9154 23.5251C10.9154 23.7286 10.9962 23.9238 11.1402 24.0678L12.8477 25.7753C12.9976 25.9251 13.194 26.0001 13.3904 26.0001C13.5868 26.0001 13.7832 25.9252 13.933 25.7753C14.2328 25.4756 14.2328 24.9896 13.933 24.6899L13.5234 24.2802C16.3431 24.1524 18.9757 22.994 20.9847 20.985C23.1178 18.8521 24.2924 16.0164 24.2924 13Z" fill="black"/>
<path d="M14.3966 1.93233L12.6891 0.224799C12.3895 -0.0749128 11.9035 -0.0749128 11.6037 0.224799C11.304 0.524511 11.304 1.01044 11.6037 1.3102L12.0418 1.74824C9.3869 1.9699 6.92045 3.10969 5.01508 5.01506C2.88221 7.14794 1.70758 9.98367 1.70758 13C1.70758 15.1852 2.33285 17.3055 3.51586 19.1318C4.66763 20.9099 6.28761 22.3252 8.20065 23.2246C8.30622 23.2742 8.41728 23.2977 8.52666 23.2977C8.81485 23.2977 9.09095 23.1346 9.22171 22.8566C9.40209 22.473 9.23725 22.0158 8.8537 21.8355C5.44509 20.2329 3.24255 16.7647 3.24255 13C3.24255 7.97659 7.05847 3.82815 11.9438 3.29982L11.6038 3.63985C11.3041 3.93956 11.3041 4.42549 11.6038 4.72525C11.7536 4.87511 11.95 4.95006 12.1464 4.95006C12.3428 4.95006 12.5393 4.87516 12.6891 4.72525L14.3966 3.01768C14.5406 2.87376 14.6215 2.67856 14.6215 2.47503C14.6215 2.27144 14.5406 2.07634 14.3966 1.93233Z" fill="black"/>
<path d="M17.5764 8.4336C17.2767 8.13388 16.7908 8.13388 16.491 8.4336L12.4572 12.4674C12.3133 12.6113 12.2324 12.8065 12.2324 13.01C12.2324 13.2136 12.3133 13.4088 12.4572 13.5527L15.4758 16.5712C15.6256 16.7211 15.8221 16.796 16.0184 16.796C16.2148 16.796 16.4113 16.7211 16.5611 16.5712C16.8608 16.2715 16.8608 15.7856 16.5611 15.4858L14.0852 13.01L17.5762 9.5189C17.8761 9.21924 17.8761 8.73331 17.5764 8.4336Z" fill="black"/>
</g>
<defs>
<clipPath id="clip0_1_47">
<rect width="26" height="26" fill="white"/>
</clipPath>
</defs>
</svg>
