<svg width="28" height="29" viewBox="0 0 28 29" fill="none" xmlns="http://www.w3.org/2000/svg">
<path d="M14 27.1875C17.2489 27.1875 20.3647 25.8508 22.6621 23.4714C24.9594 21.092 26.25 17.8649 26.25 14.5C26.25 14.2596 26.1578 14.0291 25.9937 13.8592C25.8296 13.6892 25.6071 13.5937 25.375 13.5937L14.875 13.5938L14.875 2.71875C14.875 2.4784 14.7828 2.24789 14.6187 2.07793C14.4546 1.90798 14.2321 1.8125 14 1.8125C10.7511 1.8125 7.63526 3.14922 5.33794 5.52858C3.04062 7.90795 1.75 11.1351 1.75 14.5C1.75 17.8649 3.04062 21.0921 5.33794 23.4714C7.63527 25.8508 10.7511 27.1875 14 27.1875ZM13.125 3.625L13.125 14.5C13.125 14.7404 13.2172 14.9709 13.3813 15.1408C13.5454 15.3108 13.7679 15.4063 14 15.4063L24.5 15.4062C24.3258 17.4685 23.587 19.4364 22.3702 21.0788C21.1535 22.7212 19.5094 23.9697 17.6312 24.6778C15.753 25.3858 13.7187 25.5239 11.7674 25.0759C9.816 24.6278 8.02864 23.6122 6.61532 22.1484C5.20199 20.6846 4.22142 18.8334 3.78882 16.8124C3.35622 14.7913 3.48957 12.6843 4.1732 10.7391C4.85683 8.79379 6.06233 7.09102 7.64806 5.83083C9.23379 4.57063 11.1339 3.80539 13.125 3.625Z" fill="black"/>
<path d="M17.5 11.7812L24.8238 11.7812C24.9655 11.7885 25.1069 11.7599 25.2356 11.698C25.3644 11.6362 25.4766 11.5428 25.5628 11.4259C25.6489 11.3091 25.7063 11.1723 25.73 11.0273C25.7537 10.8824 25.743 10.7337 25.6988 10.594C25.1018 8.6867 24.0768 6.95312 22.708 5.53537C21.3391 4.11762 19.6653 3.05606 17.8238 2.43772C17.6889 2.39197 17.5453 2.38089 17.4054 2.40543C17.2654 2.42998 17.1334 2.48941 17.0205 2.57861C16.9077 2.6678 16.8175 2.78408 16.7578 2.91742C16.698 3.05076 16.6705 3.19715 16.6775 3.34397L16.6775 10.8749C16.6771 11.1061 16.7621 11.3288 16.915 11.4972C17.0679 11.6657 17.2772 11.7673 17.5 11.7812ZM18.375 4.62178C20.658 5.70711 22.4896 7.60416 23.5375 9.96865L18.375 9.96866L18.375 4.62178Z" fill="black"/>
</svg>
