<svg width="15" height="15" viewBox="0 0 15 15" fill="none" xmlns="http://www.w3.org/2000/svg">
<path d="M7.50001 8.03571C7.79588 8.03571 8.03572 7.79586 8.03572 7.49999C8.03572 7.20413 7.79588 6.96428 7.50001 6.96428C7.20414 6.96428 6.96429 7.20413 6.96429 7.49999C6.96429 7.79586 7.20414 8.03571 7.50001 8.03571Z" stroke="#787885" stroke-width="2" stroke-linecap="round" stroke-linejoin="round"/>
<path d="M11.25 8.03571C11.5459 8.03571 11.7857 7.79586 11.7857 7.49999C11.7857 7.20413 11.5459 6.96428 11.25 6.96428C10.9541 6.96428 10.7143 7.20413 10.7143 7.49999C10.7143 7.79586 10.9541 8.03571 11.25 8.03571Z" stroke="#787885" stroke-width="2" stroke-linecap="round" stroke-linejoin="round"/>
<path d="M3.75001 8.03571C4.04588 8.03571 4.28572 7.79586 4.28572 7.49999C4.28572 7.20413 4.04588 6.96428 3.75001 6.96428C3.45414 6.96428 3.21429 7.20413 3.21429 7.49999C3.21429 7.79586 3.45414 8.03571 3.75001 8.03571Z" stroke="#787885" stroke-width="2" stroke-linecap="round" stroke-linejoin="round"/>
</svg>
