<svg width="13" height="13" viewBox="0 0 13 13" fill="none" xmlns="http://www.w3.org/2000/svg">
<g clip-path="url(#clip0_1_168)">
<path d="M12.025 4.225L10.985 5.265C10.79 2.34 8.38498 0 5.39498 0H5.19998V1.3H5.39498C7.60498 1.3 9.48998 3.055 9.61998 5.265L8.57998 4.225L7.66998 5.135L10.27 7.735L12.87 5.135L12.025 4.225Z" fill="#133774"/>
<path d="M3.38 7.73498L4.42 8.77498L5.33 7.86498L2.73 5.26498L0.130005 7.86498L1.04 8.77498L2.08 7.73498C2.21 10.66 4.61501 13 7.605 13H7.8V11.7H7.605C5.33 11.7 3.51 9.94498 3.38 7.73498Z" fill="#133774"/>
</g>
<defs>
<clipPath id="clip0_1_168">
<rect width="13" height="13" fill="white"/>
</clipPath>
</defs>
</svg>
