<svg width="31" height="29" viewBox="0 0 31 29" fill="none" xmlns="http://www.w3.org/2000/svg">
<path d="M0.000171661 17.9321V17.5868C0.000171661 16.0921 1.21626 14.876 2.71104 14.876C4.20582 14.876 5.4219 16.0921 5.4219 17.5868C5.4219 18.0524 5.33447 18.5058 5.16639 18.9299C5.05263 19.3482 5.11481 19.7852 5.34349 20.1638C5.40507 20.2658 5.47736 20.3594 5.55801 20.444C6.11099 19.0992 7.43454 18.1497 8.97625 18.1497C10.0875 18.1497 11.0849 18.6435 11.7628 19.4224C12.2496 18.8631 12.9009 18.4508 13.6413 18.263V16.3436H6.05044V14.5273C8.4177 14.5273 10.3436 12.6014 10.3436 10.2341C10.3436 7.86682 8.4177 5.94094 6.05044 5.94094V4.12472H13.6413V1.81165H12.5595V2.64998H9.63942V0.833693H10.7433V-0.00463867H15.4576V4.12472H17.1622C20.531 4.12472 23.2717 6.86543 23.2717 10.2342C23.2717 13.603 20.531 16.3437 17.1622 16.3437H15.4576V18.263C16.198 18.4508 16.8493 18.8632 17.3361 19.4225C18.014 18.6436 19.0114 18.1497 20.1226 18.1497C21.3657 18.1497 22.4665 18.7674 23.1365 19.7114C23.2172 19.3876 23.1984 19.0255 23.029 18.6628L22.631 17.8111C22.3948 17.3055 22.27 16.7434 22.27 16.1853C22.27 14.0675 23.993 12.3444 26.1108 12.3444H30.9979V17.2676H28.7888L30.1312 19.5625C31.2803 21.5267 31.2903 23.878 30.1581 25.8521C29.0259 27.8262 26.9912 29.0046 24.7156 29.0046H7.76301C6.58125 29.0046 5.44388 28.6772 4.4738 28.0577C3.56378 27.4767 2.8182 26.6542 2.31767 25.6793C1.81712 24.7044 1.58329 23.6192 1.64136 22.541C1.70329 21.3917 2.10006 20.2766 2.78872 19.3163L3.26171 18.6566C3.4867 18.3429 3.60568 17.9729 3.60568 17.5868C3.60568 17.0935 3.20437 16.6921 2.71104 16.6921C2.2177 16.6921 1.8164 17.0934 1.8164 17.5868V17.932H0.000171661V17.9321ZM14.0475 10.2342C14.0475 8.10313 12.4865 6.33056 10.448 5.99786C11.5073 7.09709 12.1599 8.59072 12.1599 10.2342C12.1599 11.8777 11.5073 13.3713 10.448 14.4705C12.4865 14.1378 14.0475 12.3653 14.0475 10.2342ZM14.1522 5.99786C15.2114 7.09709 15.8638 8.59078 15.8638 10.2342C15.8638 11.8776 15.2114 13.3713 14.1522 14.4705C16.1905 14.1377 17.7514 12.3651 17.7514 10.2342C17.7514 8.10319 16.1905 6.33068 14.1522 5.99786ZM21.4554 10.2342C21.4554 8.10319 19.8945 6.33068 17.8561 5.99786C18.9153 7.09703 19.5677 8.59078 19.5677 10.2342C19.5677 11.8776 18.9153 13.3713 17.8561 14.4705C19.8944 14.1377 21.4554 12.3652 21.4554 10.2342ZM8.97625 19.966C7.94047 19.966 7.09784 20.8087 7.09784 21.8445C7.09784 22.8803 7.94047 23.7229 8.97625 23.7229C10.012 23.7229 10.8547 22.8803 10.8547 21.8445C10.8547 20.8087 10.012 19.966 8.97625 19.966ZM14.5494 19.966C13.5136 19.966 12.6709 20.8087 12.6709 21.8445C12.6709 22.8803 13.5136 23.7229 14.5494 23.7229C15.5852 23.7229 16.4279 22.8803 16.4279 21.8445C16.4278 20.8087 15.5852 19.966 14.5494 19.966ZM20.1226 19.966C19.0868 19.966 18.2441 20.8087 18.2441 21.8445C18.2441 22.8803 19.0867 23.7229 20.1226 23.7229C21.1583 23.7229 22.001 22.8803 22.001 21.8445C22.001 20.8087 21.1583 19.966 20.1226 19.966ZM3.93336 24.8498C4.68523 26.3142 6.11686 27.1885 7.76295 27.1885H24.7156C26.3325 27.1885 27.7781 26.3511 28.5826 24.9485C29.3871 23.5459 29.3799 21.8754 28.5635 20.4796L26.6846 17.2676H25.6542V15.4513H29.1816V14.1607H26.1107C24.9943 14.1607 24.0861 15.0689 24.0861 16.1853C24.0861 16.4795 24.152 16.7758 24.2764 17.0423L24.6744 17.894C25.3306 19.2986 24.9542 20.9379 23.8153 21.9225C23.7734 23.9238 22.1336 25.5392 20.1226 25.5392C19.0113 25.5392 18.0139 25.0454 17.336 24.2665C16.6581 25.0454 15.6607 25.5392 14.5495 25.5392C13.4382 25.5392 12.4408 25.0454 11.7629 24.2665C11.085 25.0454 10.0876 25.5392 8.97637 25.5392C7.15046 25.5392 5.63061 24.2075 5.33471 22.4646C4.71586 22.1911 4.18432 21.7336 3.81832 21.1489C3.28968 22.3248 3.32068 23.6565 3.93336 24.8498Z" fill="#19191D"/>
</svg>
