<svg width="26" height="26" viewBox="0 0 26 26" fill="none" xmlns="http://www.w3.org/2000/svg">
<path d="M20.3002 14.4106L17.3198 14.4101V11.5899L20.3 11.5894C23.443 11.5894 26 8.98989 26 5.79461C26 2.59948 23.443 1.65777e-09 20.3 1.65777e-09C17.1563 1.65777e-09 14.5986 2.59948 14.5986 5.79461C14.5986 6.38162 14.601 7.76682 14.603 8.83116H11.3983C11.3999 7.76841 11.4012 6.38495 11.4012 5.79461C11.4012 2.59948 8.84361 1.65777e-09 5.69993 1.65777e-09C2.55706 -7.58003e-05 0 2.5994 0 5.79461C0 8.98989 2.55706 11.5894 5.69993 11.5894L8.68248 11.5899V14.4114L5.69993 14.4106C2.55706 14.4106 0 17.0101 0 20.2053C0 23.4005 2.55706 26 5.69993 26C8.84361 26 11.4012 23.4005 11.4012 20.2053C11.4012 19.6149 11.3998 18.2314 11.3983 17.1688H14.603C14.601 18.2332 14.5986 19.6183 14.5986 20.2053C14.5986 23.4005 17.1563 26 20.3 26C23.443 26 26 23.4005 26 20.2053C26.0001 17.0101 23.4432 14.4106 20.3002 14.4106ZM20.3 2.75904C21.9464 2.75904 23.2857 4.12082 23.2857 5.79461C23.2857 7.46846 21.9462 8.83032 20.2998 8.83032L17.3169 8.83093C17.3151 7.7672 17.3128 6.38093 17.3128 5.79461C17.3128 4.12082 18.6527 2.75904 20.3 2.75904ZM20.3 23.241C18.6527 23.241 17.3128 21.8792 17.3128 20.2053C17.3128 19.6191 17.3151 18.2329 17.3169 17.1691L20.3 17.1697C21.9464 17.1697 23.2857 18.5315 23.2857 20.2053C23.2857 21.8792 21.9464 23.241 20.3 23.241ZM14.6057 11.5903V14.4097H11.3967V11.5903H14.6057ZM5.69978 17.1697L8.68412 17.1704L8.68471 17.6759C8.6859 18.6365 8.68702 19.7055 8.68702 20.2053C8.68702 21.8792 7.34705 23.241 5.69985 23.241C4.05348 23.241 2.71403 21.8792 2.71403 20.2053C2.7141 18.5315 4.05356 17.1697 5.69978 17.1697ZM5.69993 2.75904C7.34712 2.75904 8.6871 4.12082 8.6871 5.79461C8.6871 6.29444 8.6859 7.36363 8.68479 8.32465L8.68419 8.83093L5.69993 8.83032C4.05356 8.83032 2.7141 7.46846 2.7141 5.79461C2.7141 4.12082 4.05356 2.75904 5.69993 2.75904Z" fill="#19191D"/>
</svg>
