<svg width="25" height="25" viewBox="0 0 25 25" fill="none" xmlns="http://www.w3.org/2000/svg">
<path d="M4.88281 21.0938H22.0215C22.5609 21.0938 22.998 20.6566 22.998 20.1172V0.976562C22.998 0.437164 22.5609 0 22.0215 0H4.88281C3.26729 0 1.95312 1.31416 1.95312 2.92969V22.0703C1.95312 23.6858 3.26729 25 4.88281 25H22.0215C22.5609 25 22.998 24.5628 22.998 24.0234C22.998 23.484 22.5609 23.0469 22.0215 23.0469H4.88281C4.34437 23.0469 3.90625 22.6088 3.90625 22.0703C3.90625 21.5319 4.34437 21.0938 4.88281 21.0938ZM3.90625 2.92969C3.90625 2.39124 4.34437 1.95312 4.88281 1.95312H21.0449V19.1406H7.8125V4.88281C7.8125 4.34341 7.37534 3.90625 6.83594 3.90625C6.29654 3.90625 5.85938 4.34341 5.85938 4.88281V19.1406H4.88281C4.54063 19.1406 4.21181 19.1996 3.90625 19.3079V2.92969ZM11.9291 15.2342C12.945 15.966 13.9463 16.51 13.9885 16.5327C14.1335 16.6111 14.2933 16.6504 14.4531 16.6504C14.6132 16.6504 14.773 16.6111 14.9179 16.5327C14.9601 16.51 15.9615 15.9662 16.9771 15.2342C18.5863 14.0747 19.3359 13.0972 19.3359 12.1582C19.3359 11.6188 18.8988 11.1816 18.3594 11.1816C17.8267 11.1816 17.3935 11.6083 17.383 12.1386C17.3647 12.1984 17.1743 12.7018 15.7385 13.7188C15.6349 13.7922 15.5315 13.8632 15.4297 13.9318V10.1181C16.4289 9.72652 17.1387 8.75359 17.1387 7.61719C17.1387 6.13651 15.934 4.93164 14.4531 4.93164C12.9723 4.93164 11.7676 6.13651 11.7676 7.61719C11.7676 8.75359 12.4773 9.72652 13.4766 10.1181V13.9318C13.3747 13.8634 13.2713 13.7922 13.1678 13.7188C11.7321 12.7018 11.5416 12.1986 11.5232 12.1386C11.5128 11.6083 11.0796 11.1816 10.5469 11.1816C10.0075 11.1816 9.57031 11.6188 9.57031 12.1582C9.57031 13.0972 10.3199 14.0747 11.9291 15.2342ZM14.4531 6.88477C14.8569 6.88477 15.1855 7.2134 15.1855 7.61719C15.1855 8.02097 14.8569 8.34961 14.4531 8.34961C14.0493 8.34961 13.7207 8.02097 13.7207 7.61719C13.7207 7.2134 14.0493 6.88477 14.4531 6.88477Z" fill="#303030"/>
</svg>
