<svg width="27" height="20" viewBox="0 0 27 20" fill="none" xmlns="http://www.w3.org/2000/svg">
<path d="M25.3125 8.375H23.7889C24.1453 7.64272 24.3408 6.84739 24.3629 6.03892C24.385 5.23046 24.2334 4.42632 23.9175 3.67696C23.5407 2.73438 22.8962 1.9129 22.0575 1.30641C21.2188 0.699911 20.2198 0.33287 19.1747 0.247235C18.1185 0.164513 17.0567 0.318058 16.0723 0.695876C15.0879 1.07369 14.2076 1.66555 13.5 2.42522C12.7925 1.6651 11.9119 1.07295 10.9271 0.695108C9.94237 0.317263 8.88018 0.163974 7.82367 0.247235C6.77511 0.3339 5.77302 0.702929 4.93197 1.31213C4.09093 1.92134 3.44486 2.74613 3.06762 3.69223C2.68876 4.58602 2.54762 5.55676 2.657 6.51637C2.76639 7.47599 3.12284 8.39413 3.69402 9.1875H1.6875C1.46372 9.1875 1.24911 9.2731 1.09088 9.42547C0.932645 9.57785 0.84375 9.78451 0.84375 10C0.84375 10.2155 0.932645 10.4221 1.09088 10.5745C1.24911 10.7269 1.46372 10.8125 1.6875 10.8125H5.08511L12.807 19.4949C12.886 19.5837 12.9839 19.6551 13.0941 19.7042C13.2043 19.7532 13.3242 19.7789 13.4456 19.7792H13.4481C13.5691 19.7792 13.6886 19.7542 13.7986 19.7058C13.9086 19.6574 14.0066 19.5868 14.0858 19.4988L22.6344 10H25.3125C25.5363 10 25.7509 9.91439 25.9091 9.76202C26.0674 9.60965 26.1562 9.40298 26.1562 9.1875C26.1562 8.97201 26.0674 8.76535 25.9091 8.61297C25.7509 8.4606 25.5363 8.375 25.3125 8.375ZM5.36077 8.62411C4.83611 8.03869 4.49026 7.32466 4.36164 6.56136C4.23302 5.79806 4.32667 5.01536 4.63219 4.30023C4.896 3.63356 5.3492 3.05177 5.94002 2.62131C6.53085 2.19086 7.23548 1.92909 7.97344 1.8659C8.1259 1.85282 8.28082 1.84607 8.4375 1.84607C9.31221 1.84172 10.1729 2.0579 10.9339 2.47311C11.695 2.88833 12.33 3.48813 12.7757 4.21288C12.8563 4.3263 12.9644 4.41908 13.0906 4.4832C13.2168 4.54731 13.3573 4.58082 13.5 4.58082C13.6427 4.58082 13.7832 4.54731 13.9094 4.4832C14.0356 4.41908 14.1437 4.3263 14.2243 4.21288C14.67 3.48813 15.305 2.88833 16.0661 2.47311C16.8271 2.0579 17.6878 1.84172 18.5625 1.84607C18.719 1.84607 18.8739 1.85282 19.0248 1.8659C19.7593 1.92796 20.4609 2.18773 21.0494 2.61552C21.6379 3.04331 22.0896 3.62187 22.3528 4.28512C22.6332 4.95366 22.7321 5.67996 22.6402 6.39551C22.5484 7.11107 22.2688 7.79231 21.8278 8.375H16.875C16.744 8.37492 16.6148 8.40425 16.4976 8.46067C16.3804 8.51709 16.2785 8.59903 16.2 8.7L14.4878 10.8983L12.5671 7.19915C12.5011 7.07185 12.4014 6.96351 12.2782 6.88498C12.155 6.80645 12.0125 6.76049 11.8651 6.7517C11.7172 6.74035 11.5689 6.76785 11.436 6.83129C11.3031 6.89472 11.1905 6.9917 11.1103 7.11188L9.67342 9.1875H5.86187L5.36077 8.62411ZM13.4523 17.7215L7.30687 10.8125H10.125C10.2639 10.8125 10.4006 10.7795 10.5231 10.7163C10.6456 10.6532 10.75 10.562 10.827 10.4507L11.7079 9.17799L13.5894 12.8009C13.6538 12.9248 13.75 13.0307 13.8688 13.1087C13.9876 13.1868 14.1252 13.2343 14.2684 13.2468C14.2937 13.2488 14.3195 13.25 14.3443 13.25C14.4753 13.2501 14.6046 13.2207 14.7217 13.1643C14.8389 13.1079 14.9408 13.026 15.0193 12.925L17.2969 10H20.4013L13.4523 17.7215Z" fill="black"/>
</svg>
