<svg width="20" height="20" viewBox="0 0 20 20" fill="none" xmlns="http://www.w3.org/2000/svg">
<path d="M16.7417 9.75874L10.1774 16.323C9.37321 17.1272 8.28252 17.579 7.14524 17.579C6.00797 17.579 4.91728 17.1272 4.1131 16.323C3.30893 15.5188 2.85715 14.4282 2.85715 13.2909C2.85715 12.1536 3.30893 11.0629 4.1131 10.2587L10.6774 3.69445C11.2135 3.15833 11.9406 2.85715 12.6988 2.85715C13.457 2.85715 14.1841 3.15833 14.7202 3.69445C15.2564 4.23057 15.5575 4.9577 15.5575 5.71588C15.5575 6.47406 15.2564 7.20119 14.7202 7.73731L8.14882 14.3016C7.88076 14.5697 7.51719 14.7202 7.1381 14.7202C6.75901 14.7202 6.39545 14.5697 6.12739 14.3016C5.85933 14.0335 5.70874 13.67 5.70874 13.2909C5.70874 12.9118 5.85933 12.5482 6.12739 12.2802L12.1917 6.22302" stroke="#B4B4BB" stroke-width="2" stroke-linecap="round" stroke-linejoin="round"/>
</svg>
