<svg width="29" height="30" viewBox="0 0 29 30" fill="none" xmlns="http://www.w3.org/2000/svg">
<path d="M14.5 18.2143C16.2161 18.2143 17.6072 16.7752 17.6072 15C17.6072 13.2248 16.2161 11.7857 14.5 11.7857C12.784 11.7857 11.3929 13.2248 11.3929 15C11.3929 16.7752 12.784 18.2143 14.5 18.2143Z" stroke="#19191D" stroke-width="2" stroke-linecap="round" stroke-linejoin="round"/>
<path d="M22.1643 18.2143C22.0264 18.5374 21.9853 18.8959 22.0462 19.2435C22.1071 19.591 22.2673 19.9117 22.506 20.1643L22.5682 20.2285C22.7608 20.4276 22.9136 20.6639 23.0178 20.924C23.1221 21.1842 23.1757 21.463 23.1757 21.7446C23.1757 22.0262 23.1221 22.3051 23.0178 22.5652C22.9136 22.8253 22.7608 23.0617 22.5682 23.2607C22.3758 23.4599 22.1474 23.618 21.8959 23.7258C21.6444 23.8337 21.3749 23.8892 21.1027 23.8892C20.8304 23.8892 20.5609 23.8337 20.3094 23.7258C20.0579 23.618 19.8295 23.4599 19.6371 23.2607L19.575 23.1964C19.3309 22.9494 19.0208 22.7837 18.6849 22.7207C18.3489 22.6577 18.0024 22.7002 17.69 22.8428C17.3836 22.9786 17.1224 23.2042 16.9384 23.4916C16.7543 23.7791 16.6556 24.1159 16.6543 24.4607V24.6428C16.6543 25.2112 16.436 25.7562 16.0475 26.1581C15.6591 26.5599 15.1322 26.7857 14.5828 26.7857C14.0335 26.7857 13.5066 26.5599 13.1181 26.1581C12.7296 25.7562 12.5114 25.2112 12.5114 24.6428V24.5464C12.5034 24.1918 12.3924 23.8478 12.1929 23.5593C11.9934 23.2708 11.7147 23.051 11.3928 22.9285C11.0804 22.7859 10.7339 22.7434 10.3979 22.8064C10.062 22.8694 9.75193 23.0351 9.50783 23.2821L9.44569 23.3464C9.25331 23.5456 9.02485 23.7037 8.77339 23.8115C8.52192 23.9194 8.25237 23.9749 7.98015 23.9749C7.70793 23.9749 7.43839 23.9194 7.18692 23.8115C6.93545 23.7037 6.707 23.5456 6.51462 23.3464C6.32202 23.1474 6.16924 22.9111 6.06499 22.6509C5.96075 22.3908 5.90709 22.1119 5.90709 21.8303C5.90709 21.5487 5.96075 21.2699 6.06499 21.0097C6.16924 20.7496 6.32202 20.5133 6.51462 20.3143L6.57676 20.25C6.81553 19.9975 6.9757 19.6767 7.03662 19.3292C7.09754 18.9816 7.05641 18.6231 6.91854 18.3C6.78725 17.9831 6.56926 17.7128 6.29138 17.5224C6.01351 17.3321 5.6879 17.2299 5.35462 17.2285H5.17854C4.62917 17.2285 4.10229 17.0028 3.71382 16.6009C3.32536 16.1991 3.10712 15.654 3.10712 15.0857C3.10712 14.5174 3.32536 13.9723 3.71382 13.5705C4.10229 13.1686 4.62917 12.9428 5.17854 12.9428H5.27176C5.61457 12.9345 5.94705 12.8197 6.22596 12.6134C6.50487 12.407 6.71732 12.1186 6.83569 11.7857C6.97356 11.4625 7.01468 11.1041 6.95376 10.7565C6.89284 10.4089 6.73267 10.0882 6.4939 9.83569L6.43176 9.77141C6.23917 9.57239 6.08638 9.33606 5.98214 9.07592C5.87789 8.81578 5.82424 8.53694 5.82424 8.25533C5.82424 7.97373 5.87789 7.69489 5.98214 7.43475C6.08638 7.17461 6.23917 6.93828 6.43176 6.73926C6.62414 6.54003 6.85259 6.38197 7.10406 6.27414C7.35553 6.1663 7.62508 6.11079 7.89729 6.11079C8.16951 6.11079 8.43906 6.1663 8.69053 6.27414C8.942 6.38197 9.17045 6.54003 9.36283 6.73926L9.42497 6.80355C9.66907 7.05055 9.9791 7.21625 10.3151 7.27927C10.6511 7.34229 10.9976 7.29974 11.31 7.15712H11.3928C11.6992 7.0213 11.9604 6.79579 12.1444 6.50833C12.3285 6.22088 12.4272 5.88403 12.4285 5.53926V5.35712C12.4285 4.7888 12.6468 4.24376 13.0353 3.84189C13.4237 3.44003 13.9506 3.21426 14.5 3.21426C15.0493 3.21426 15.5762 3.44003 15.9647 3.84189C16.3532 4.24376 16.5714 4.7888 16.5714 5.35712V5.45355C16.5727 5.79832 16.6715 6.13517 16.8555 6.42262C17.0395 6.71007 17.3008 6.93559 17.6071 7.07141C17.9195 7.21403 18.266 7.25657 18.602 7.19355C18.938 7.13053 19.248 6.96484 19.4921 6.71783L19.5543 6.65355C19.7466 6.45431 19.9751 6.29626 20.2266 6.18842C20.478 6.08058 20.7476 6.02508 21.0198 6.02508C21.292 6.02508 21.5616 6.08058 21.813 6.18842C22.0645 6.29626 22.2929 6.45431 22.4853 6.65355C22.6779 6.85256 22.8307 7.0889 22.935 7.34903C23.0392 7.60917 23.0929 7.88802 23.0929 8.16962C23.0929 8.45122 23.0392 8.73007 22.935 8.99021C22.8307 9.25035 22.6779 9.48668 22.4853 9.68569L22.4232 9.74998C22.1844 10.0025 22.0242 10.3232 21.9633 10.6708C21.9024 11.0183 21.9435 11.3768 22.0814 11.7V11.7857C22.2127 12.1026 22.4307 12.3729 22.7086 12.5632C22.9864 12.7536 23.312 12.8557 23.6453 12.8571H23.8214C24.3708 12.8571 24.8977 13.0829 25.2861 13.4847C25.6746 13.8866 25.8928 14.4317 25.8928 15C25.8928 15.5683 25.6746 16.1133 25.2861 16.5152C24.8977 16.9171 24.3708 17.1428 23.8214 17.1428H23.7282C23.3949 17.1442 23.0693 17.2464 22.7914 17.4367C22.5135 17.6271 22.2955 17.8974 22.1643 18.2143V18.2143Z" stroke="#19191D" stroke-width="2" stroke-linecap="round" stroke-linejoin="round"/>
</svg>
